<?xml version="1.0" encoding="UTF-8"?>
<svg width="180" height="60" viewBox="0 0 180 60" fill="none" xmlns="http://www.w3.org/2000/svg">
  <!-- Flower Icon -->
  <g transform="translate(10, 10)">
    <!-- Petals -->
    <path d="M20,0 A20,20 0 0,1 40,20 A20,20 0 0,1 20,40 A20,20 0 0,1 0,20 A20,20 0 0,1 20,0 z" fill="#FF69B4" opacity="0.8"/>
    <path d="M20,5 A15,15 0 0,1 35,20 A15,15 0 0,1 20,35 A15,15 0 0,1 5,20 A15,15 0 0,1 20,5 z" fill="#FF007F" opacity="0.9"/>
    <circle cx="20" cy="20" r="8" fill="#FFD700"/>
  </g>
  
  <!-- Text -->
  <text x="60" y="35" font-family="Poppins, sans-serif" font-size="24" font-weight="600" fill="#1E1656">
    Blooming
  </text>
  <text x="60" y="50" font-family="Poppins, sans-serif" font-size="16" font-weight="400" fill="#4A5D4C">
    Delights
  </text>
</svg>