<?xml version="1.0" encoding="UTF-8"?>
<svg width="100" height="100" viewBox="0 0 100 100" fill="none" xmlns="http://www.w3.org/2000/svg">
  <!-- Flower Pattern -->
  <g opacity="0.1">
    <!-- Flower 1 -->
    <g transform="translate(10, 10) scale(0.4)">
      <path d="M20,0 A20,20 0 0,1 40,20 A20,20 0 0,1 20,40 A20,20 0 0,1 0,20 A20,20 0 0,1 20,0 z" fill="#FFFFFF"/>
      <circle cx="20" cy="20" r="5" fill="#FFFFFF"/>
    </g>
    
    <!-- Flower 2 -->
    <g transform="translate(60, 60) scale(0.4)">
      <path d="M20,0 A20,20 0 0,1 40,20 A20,20 0 0,1 20,40 A20,20 0 0,1 0,20 A20,20 0 0,1 20,0 z" fill="#FFFFFF"/>
      <circle cx="20" cy="20" r="5" fill="#FFFFFF"/>
    </g>
    
    <!-- Small Dots -->
    <circle cx="85" cy="15" r="3" fill="#FFFFFF"/>
    <circle cx="15" cy="85" r="3" fill="#FFFFFF"/>
    
    <!-- Curved Lines -->
    <path d="M40,40 Q50,20 60,40" stroke="#FFFFFF" stroke-width="2" fill="none"/>
    <path d="M40,60 Q50,80 60,60" stroke="#FFFFFF" stroke-width="2" fill="none"/>
  </g>
</svg>